<?xml version="1.0" standalone="no"?>
<!DOCTYPE svg PUBLIC "-//W3C//DTD SVG 20010904//EN"
 "http://www.w3.org/TR/2001/REC-SVG-20010904/DTD/svg10.dtd">
<svg version="1.0" xmlns="http://www.w3.org/2000/svg"
 width="1458.000000pt" height="1458.000000pt" viewBox="0 0 1458.000000 1458.000000"
 preserveAspectRatio="xMidYMid meet">
<metadata>
Created by potrace 1.14, written by Peter Selinger 2001-2017
</metadata>
<g transform="translate(0.000000,1458.000000) scale(0.100000,-0.100000)"
fill="#000000" stroke="none">
<path d="M6920 13733 c-110 -22 -287 -131 -419 -257 -85 -81 -181 -195 -206
-242 -11 -22 -56 -102 -101 -180 -44 -77 -84 -147 -87 -155 -4 -8 -15 -27 -26
-44 -24 -40 -209 -359 -237 -410 -24 -45 -157 -274 -185 -320 -11 -16 -22 -37
-26 -45 -4 -8 -20 -37 -36 -65 -16 -27 -73 -124 -125 -215 -52 -91 -156 -271
-230 -400 -75 -129 -152 -264 -172 -300 -20 -36 -88 -153 -150 -260 -134 -231
-164 -295 -186 -386 -45 -195 -35 -432 27 -593 25 -66 53 -119 211 -391 69
-118 136 -235 150 -260 14 -25 59 -103 100 -175 42 -71 85 -146 96 -165 10
-19 51 -89 89 -155 39 -66 70 -121 69 -122 -2 -3 -52 -11 -111 -18 -27 -4 -87
-19 -132 -35 -77 -27 -138 -58 -438 -232 -121 -70 -763 -440 -830 -478 -16
-10 -118 -68 -225 -130 -107 -62 -211 -121 -230 -132 -19 -11 -75 -44 -125
-73 -49 -29 -112 -65 -140 -80 -96 -54 -114 -64 -152 -87 -21 -13 -48 -29 -58
-36 -11 -6 -27 -15 -35 -19 -8 -4 -59 -33 -113 -65 -54 -32 -101 -58 -104 -58
-3 0 -17 -9 -33 -20 -15 -11 -76 -45 -136 -76 -60 -31 -132 -73 -160 -94 -188
-140 -325 -443 -327 -720 0 -47 1 -763 2 -1591 3 -1515 4 -1548 35 -1664 51
-190 191 -404 341 -521 22 -17 92 -61 155 -98 63 -37 122 -71 130 -76 86 -51
243 -140 246 -140 2 0 27 -15 56 -33 29 -19 60 -37 68 -40 8 -4 29 -15 45 -26
17 -10 46 -27 65 -38 53 -31 216 -125 410 -238 96 -56 182 -104 190 -108 8 -4
31 -17 50 -28 62 -38 264 -155 310 -181 48 -27 195 -113 220 -128 63 -39 173
-100 181 -100 5 0 9 -4 9 -10 0 -5 4 -10 9 -10 5 0 134 -73 287 -162 154 -88
295 -168 314 -176 51 -21 193 -42 285 -42 182 0 322 44 520 165 74 45 677 395
780 452 33 19 76 43 95 55 91 53 660 383 695 402 22 13 139 80 260 151 121 70
234 135 250 145 17 9 91 52 165 95 74 43 189 109 255 148 114 66 179 111 235
167 105 104 206 269 254 415 43 132 42 117 45 1755 2 1547 2 1566 -18 1626
-28 85 -91 193 -170 294 l-67 85 675 1 c779 1 760 -1 966 99 148 72 249 149
342 261 33 40 203 316 203 330 0 2 27 48 59 103 33 55 69 117 81 138 11 21 29
52 39 68 10 17 70 120 133 230 64 110 139 241 168 290 29 50 61 105 71 123 40
70 697 1205 771 1332 43 74 85 158 93 185 24 82 23 247 -4 365 -5 25 -12 56
-14 70 -22 120 -119 349 -184 436 -13 17 -23 33 -23 36 0 3 -44 81 -98 174
-54 93 -101 176 -105 184 -4 8 -16 29 -27 45 -10 17 -34 57 -53 90 -18 33 -93
164 -167 290 -73 127 -142 246 -153 265 -11 19 -33 58 -49 85 -16 28 -39 66
-50 85 -12 19 -31 53 -43 75 -13 22 -79 137 -147 255 -69 118 -133 229 -142
245 -9 17 -26 46 -37 65 -12 19 -89 152 -172 295 -197 341 -207 356 -290 441
-143 144 -357 255 -546 285 -99 15 -3137 18 -3211 2z"/>
</g>
</svg>
